<svg width="19" height="18" viewBox="0 0 19 18" fill="none" xmlns="http://www.w3.org/2000/svg">
<path d="M0 1.10461V16.8946C0.000120253 16.9288 0.0117353 16.9623 0.0333886 16.9908C0.0550419 17.0193 0.0857695 17.0415 0.121718 17.0546C0.157667 17.0678 0.197237 17.0714 0.235466 17.0648C0.273695 17.0583 0.308881 17.042 0.336613 17.0179L9.68275 9L0.336613 0.981267C0.308881 0.957216 0.273695 0.940902 0.235466 0.934371C0.197237 0.92784 0.157667 0.931383 0.121718 0.944556C0.0857695 0.957729 0.0550419 0.979946 0.0333886 1.00842C0.0117353 1.03689 0.000120253 1.07036 0 1.10461ZM13.6015 5.7054L1.88266 0.0258337L1.87535 0.0222177C1.67347 -0.0742096 1.48164 0.166055 1.64698 0.305875L10.8333 8.03291L13.6015 5.7054ZM1.64789 17.6941C1.48164 17.8339 1.67347 18.0742 1.87626 17.9778L1.88357 17.9742L13.6015 12.2946L10.8333 9.96628L1.64789 17.6941ZM18.3324 7.99555L15.0599 6.41012L11.9829 9L15.0599 11.5887L18.3324 10.0044C19.2225 9.57173 19.2225 8.42827 18.3324 7.99555Z" fill="#A4A4A4"/>
</svg>
