<svg width="16" height="16" viewBox="0 0 16 16" fill="none" xmlns="http://www.w3.org/2000/svg">
<path d="M14.8197 6.05898e-05H1.18033C0.870861 -0.00308887 0.572783 0.116656 0.3515 0.333019C0.130218 0.549383 0.00380476 0.844692 0 1.15415V14.8485C0.00449283 15.1575 0.131208 15.4521 0.352416 15.6679C0.573623 15.8837 0.871309 16.0031 1.18033 15.9999H14.8197C15.1292 16.0024 15.427 15.8822 15.6482 15.6657C15.8694 15.4492 15.9959 15.154 16 14.8445V1.15022C15.9945 0.841666 15.8674 0.547764 15.6464 0.332393C15.4254 0.117023 15.1283 -0.0024078 14.8197 6.05898e-05Z" fill="#A4A4A4"/>
<path d="M2.47405 5.70191H4.84269V13.7143H2.47405V5.70191ZM3.65903 1.71429C3.9307 1.71429 4.19627 1.799 4.42213 1.9577C4.648 2.11641 4.82402 2.34198 4.92793 2.60588C5.03183 2.86978 5.05895 3.16015 5.00585 3.44026C4.95276 3.72036 4.82183 3.97762 4.62964 4.17948C4.43745 4.38135 4.19263 4.51875 3.92614 4.5743C3.65966 4.62986 3.38349 4.60107 3.13258 4.49158C2.88166 4.38209 2.66727 4.19682 2.51652 3.95921C2.36578 3.7216 2.28546 3.44232 2.28571 3.15671C2.28606 2.77403 2.4309 2.40714 2.68841 2.13668C2.94592 1.86621 3.29503 1.71429 3.65903 1.71429ZM6.32848 5.70191H8.59903V6.80194H8.63042C8.94693 6.17217 9.7186 5.50803 10.8709 5.50803C13.2696 5.50253 13.7143 7.16221 13.7143 9.31415V13.7143H11.3457V9.81604C11.3457 8.88788 11.33 7.69297 10.1149 7.69297C8.89985 7.69297 8.6932 8.705 8.6932 9.75554V13.7143H6.32848V5.70191Z" fill="white"/>
</svg>
